# xmcd
#
# Track frame offsets:
#	150
#	12110
#	24930
#	37425
#	50307
#	63305
#	78447
#	91657
#	106065
#	120715
#	131812
#	145977
#	158940
#	171430
#	184335
#	196257
#	208765
#	220235
#	231427
#	244895
#	257337
#	269370
#	280377
#	293315
#	306005
#
# Disc length: 4247 seconds
#
# Revision: 1
# Processed by: cddbd v1.4PL0 Copyright (c) Steve Scherf et al.
# Submitted via: audiograbber 1.80
#
DISCID=6b109519
DTITLE=gene autry - back in the saddle again 25 cowboy classicss
DYEAR=1900
DGENRE=
TTITLE0=back in saddle again 1937
TTITLE1=blue yodel no.5 1929
TTITLE2=any old time 1931
TTITLE3=high steppin' mama 1931
TTITLE4=silver-haired daddy of mine 1931
TTITLE5=tumbling tumbleweeds 1935
TTITLE6=ridin' down the canyon 1935
TTITLE7=mexecali rose 1935
TTITLE8=blue hawaii 1937
TTITLE9=dust 1937
TTITLE10=the old trail 1938
TTITLE11=paradise in the moonlight 1939
TTITLE12=rhythm of the hoofbeats 1939
TTITLE13=south of the bordr 1939
TTITLE14=blueberry hill 1940
TTITLE15=be honest with me 1940
TTITLE16=when the swallows come back to capistrano 1940
TTITLE17=you are my sunshine 1941
TTITLE18=a year ago tonight 1941
TTITLE19=i'll never let you go 1941
TTITLE20=i'll wait for you 1941
TTITLE21=after tomorrow 1941
TTITLE22=lonely river 1941
TTITLE23=have i told you lately that i love you? 1945
TTITLE24=goodbye little darlin' goodbye 1940
EXTD=
EXTT0=
EXTT1=
EXTT2=
EXTT3=
EXTT4=
EXTT5=
EXTT6=
EXTT7=
EXTT8=
EXTT9=
EXTT10=
EXTT11=
EXTT12=
EXTT13=
EXTT14=
EXTT15=
EXTT16=
EXTT17=
EXTT18=
EXTT19=
EXTT20=
EXTT21=
EXTT22=
EXTT23=
EXTT24=
PLAYORDER=
